<?xml version="1.0" encoding="UTF-8" standalone="no"?>
<svg width="32px" height="36px" viewBox="0 0 32 36" version="1.1" xmlns="http://www.w3.org/2000/svg" xmlns:xlink="http://www.w3.org/1999/xlink">
    <!-- Generator: Sketch 39.1 (31720) - http://www.bohemiancoding.com/sketch -->
    <title>fc-logo-dash</title>
    <desc>Created with Sketch.</desc>
    <defs></defs>
    <g id="Page-1" stroke="none" stroke-width="1" fill-rule="evenodd">
        <g id="Services" transform="translate(-120.000000, -12.000000)" fill="#000000">
            <g id="Navigation">
                <g id="fc-logo-dash" transform="translate(120.000000, 12.000000)">
                    <path d="M17.9107472,32.0907933 C10.1386717,32.0907933 3.83889811,25.7777849 3.83889811,17.989684 C3.83889811,10.2011294 10.1386717,3.88812101 17.9107472,3.88812101 C22.5733887,3.88812101 26.7041057,6.16217143 29.2648604,9.66188571 C30.1744453,8.80151597 31.0290868,7.81514622 31.9969358,6.9818521 C28.7265962,2.78573445 23.6349736,0.0845243697 17.9107472,0.0845243697 C8.04312453,0.0845243697 0.0435773585,8.10072605 0.0435773585,17.989079 C0.0435773585,27.8777345 8.04312453,35.8939361 17.9107472,35.8939361 C22.929766,35.8939361 27.4613887,33.8175832 30.7075774,30.4783563 C29.7912,29.5249613 28.9472755,28.5361714 28.3819925,27.4074655 C25.8052377,30.2814151 22.0695396,32.0907933 17.9107472,32.0907933" id="Fill-13"></path>
                    <polygon id="Fill-15" points="23.3690264 7.4394605 11.7877434 7.4394605 11.7877434 7.44127563 11.6991396 7.44127563 11.6991396 28.3315613 15.8208 28.3315613 15.8208 11.5702336 23.3690264 11.5702336"></polygon>
                    <path d="M21.954083,18.5751227 C21.954083,19.6174588 21.1106113,20.4624 20.0709132,20.4624 C19.0312151,20.4624 18.1877434,19.6174588 18.1877434,18.5751227 C18.1877434,17.5326353 19.0312151,16.6882992 20.0709132,16.6882992 C21.1106113,16.6882992 21.954083,17.5326353 21.954083,18.5751227" id="Fill-17"></path>
                </g>
            </g>
        </g>
    </g>
</svg>
