<?xml version="1.0" encoding="UTF-8" standalone="no"?>
<svg width="81px" height="91px" viewBox="0 0 81 91" version="1.1" xmlns="http://www.w3.org/2000/svg" xmlns:xlink="http://www.w3.org/1999/xlink">
    <!-- Generator: Sketch 39.1 (31720) - http://www.bohemiancoding.com/sketch -->
    <title>logo-fc</title>
    <desc>Created with Sketch.</desc>
    <defs></defs>
    <g id="Page-1" stroke="none" stroke-width="1" fill="none" fill-rule="evenodd">
        <g id="About-us" transform="translate(-46.000000, -30.000000)">
            <g id="logo-fc" transform="translate(46.000000, 30.000000)">
                <g fill="#000000" id="campus" transform="translate(9.000000, 81.000000)">
                    <path d="M9,7.54958805 C8.15024689,9.02400909 6.61067953,10.0039079 4.85135201,9.99998828 C2.17891898,9.99389114 -0.00580437356,7.72226799 1.15851677e-05,4.93456482 C0.00478897984,2.25704583 2.19969026,-0.00608485676 4.87004617,1.22912402e-05 C6.6150415,0.00306086524 8.13944582,0.990145576 8.98421383,2.41230535 L7.79921224,2.41078106 C7.09527352,1.54868788 6.05442462,0.997984766 4.86859218,0.995807214 C2.71814144,0.991669863 0.994955953,2.79098179 0.992047973,4.9356536 C0.985401164,7.19203387 2.70360154,8.99744295 4.85239058,9.00266907 C6.05151664,9.00484663 7.12186076,8.44673983 7.81292128,7.54806377 L9,7.54958805 L9,7.54958805 Z" id="Fill-1"></path>
                    <path d="M16.0250934,1.23168855 L14.3125511,5.03400299 L17.7095576,5.04091507 L16.0250934,1.23168855 Z M15.4723751,0 L16.5680838,0.00156079288 L21,10 L19.9056178,9.99821624 L18.1375826,6.02131597 L13.8789989,6.01239715 L12.0957087,9.98216237 L11,9.97948672 L15.4723751,0 Z" id="Fill-3"></path>
                    <polygon id="Fill-5" points="31.9715116 2.35248257 28.6058541 9.99019892 27.3856552 9.9879714 24.0380963 2.33711269 24.0222322 9.98128884 23 9.97772481 23.0192157 0 24.1804268 0.00356403003 27.9909507 8.87176174 31.8356608 0.0189339095 33 0.0200476689 32.9789968 10 31.9556474 9.99643597"></polygon>
                    <path d="M40.5481995,5.2428463 C41.9262604,5.24686398 42.8501903,4.39355386 42.8528418,3.11950359 C42.854047,1.84589974 41.9489187,0.989018347 40.556395,0.987679121 L38.122552,0.982099013 L38.1145974,5.23927503 L40.5481995,5.2428463 Z M40.5607339,0.00602651667 C42.6166166,0.00959778581 44.0060066,1.25909558 43.9999805,3.12218205 C43.99757,4.98482211 42.6192681,6.22740056 40.5477174,6.2240525 L38.112428,6.22025802 L38.1047145,10 L37,9.99799116 L37.0204889,0 L40.5607339,0.00602651667 Z" id="Fill-7"></path>
                    <path d="M47.0000033,6.2405865 L47.0106892,-1.42108547e-14 L48.0788111,0.00130898511 L48.06557,6.2429863 C48.060227,7.96757418 49.15065,8.99578198 51.0027893,9.00079976 C52.8379706,9.00429039 53.9197983,7.97935505 53.9242121,6.25411268 L53.9367563,0.0135261794 L55,0.0148351645 L54.9867588,6.25629432 C54.9802544,8.61006771 53.5067664,10.0039187 50.9997693,9.99999172 C48.4790665,9.99519211 46.997448,8.59457805 47.0000033,6.2405865" id="Fill-9"></path>
                    <path d="M62.2688264,2.14249188 C62.0432542,1.50107188 61.3182351,0.995796205 60.4999923,0.993407708 C59.3189985,0.990802075 58.5427788,1.75360115 58.5408467,2.59717484 C58.5403637,3.44357131 59.1888235,3.8268165 60.4927469,4.19529644 C62.5067157,4.77114134 64.0055394,5.48378198 63.9999846,7.18634603 C63.9951544,8.887173 62.4337791,10.0026011 60.4789808,9.99999544 C58.6782671,9.996087 57.2086664,8.90389248 57,7.39067109 L58.1500803,7.39349386 C58.3623693,8.3323903 59.3148928,9.00334081 60.4809129,9.00486076 C61.799327,9.00703212 62.8474892,8.3137166 62.8501458,7.18395754 C62.8513534,6.28392846 62.199754,5.79254949 60.4903318,5.3118102 C58.475397,4.75029628 57.3869023,4.06827183 57.3890759,2.59608916 C57.3922155,1.12564359 58.6381761,-0.00389833743 60.5019244,1.01121249e-05 C62.0181369,0.0019643369 63.2404293,0.890268067 63.4824243,2.14488038 L62.2688264,2.14249188 Z" id="Fill-11"></path>
                </g>
                <g fill="#000000" id="factory" transform="translate(0.000000, 58.000000)">
                    <path d="M18.3337356,14.1985396 C18.024409,12.5676569 17.716088,10.9546824 17.4075659,9.36188031 C17.0990438,7.76948995 16.8021868,6.13387285 16.5182016,4.45564656 C16.2092772,6.13387285 15.8947214,7.76948995 15.5743331,9.36188031 C15.2545481,10.9546824 14.9273216,12.5676569 14.595067,14.1985396 L18.3337356,14.1985396 Z M19.2940961,19 L18.6533194,15.8148076 L14.2756843,15.8148076 L13.6353098,19 L11,19 L15.0220504,0 L18.1911396,0 L22,19 L19.2940961,19 Z" id="Fill-19"></path>
                    <path d="M18.3337356,14.1985396 C18.024409,12.5676569 17.716088,10.9546824 17.4075659,9.36188031 C17.0990438,7.76948995 16.8021868,6.13387285 16.5182016,4.45564656 C16.2092772,6.13387285 15.8947214,7.76948995 15.5743331,9.36188031 C15.2545481,10.9546824 14.9273216,12.5676569 14.595067,14.1985396 L18.3337356,14.1985396 L18.3337356,14.1985396 Z M19.2940961,19 L18.6533194,15.8148076 L14.2756843,15.8148076 L13.6353098,19 L11,19 L15.0220504,0 L18.1911396,0 L22,19 L19.2940961,19 L19.2940961,19 Z" id="Stroke-21"></path>
                    <path d="M30.5259828,12.6035792 L33,12.6035792 L33,16.6464527 C33,17.7884738 32.6599721,18.6325856 31.978903,19.1794241 C31.2972261,19.7264747 30.2035845,20 28.6967623,20 C25.5643716,20 24,18.8984776 24,16.6947967 L24,3.37644714 C24,1.12675459 25.5643716,0 28.6967623,0 C31.5657225,0 33,1.11042789 33,3.32958738 L33,6.80145032 L30.5259828,6.80145032 L30.5259828,3.35312328 C30.5259828,2.83003265 30.3932544,2.44667317 30.131445,2.19944023 C29.8684199,1.9541156 29.3903949,1.8309232 28.6967623,1.8309232 C27.4061557,1.8309232 26.7605485,2.33917137 26.7605485,3.35312328 L26.7605485,16.6704126 C26.7605485,17.7019634 27.4061557,18.2159366 28.6967623,18.2159366 C29.3658756,18.2159366 29.8388346,18.0901997 30.1130049,17.8357576 C30.3875805,17.5819516 30.5259828,17.1935032 30.5259828,16.6704126 L30.5259828,12.6035792 Z" id="Fill-23"></path>
                    <path d="M30.5259828,12.6035792 L33,12.6035792 L33,16.6464527 C33,17.7884738 32.6599721,18.6325856 31.978903,19.1794241 C31.2972261,19.7264747 30.2035845,20 28.6967623,20 C25.5643716,20 24,18.8984776 24,16.6947967 L24,3.37644714 C24,1.12675459 25.5643716,0 28.6967623,0 C31.5657225,0 33,1.11042789 33,3.32958738 L33,6.80145032 L30.5259828,6.80145032 L30.5259828,3.35312328 C30.5259828,2.83003265 30.3932544,2.44667317 30.131445,2.19944023 C29.8684199,1.9541156 29.3903949,1.8309232 28.6967623,1.8309232 C27.4061557,1.8309232 26.7605485,2.33917137 26.7605485,3.35312328 L26.7605485,16.6704126 C26.7605485,17.7019634 27.4061557,18.2159366 28.6967623,18.2159366 C29.3658756,18.2159366 29.8388346,18.0901997 30.1130049,17.8357576 C30.3875805,17.5819516 30.5259828,17.1935032 30.5259828,16.6704126 L30.5259828,12.6035792 L30.5259828,12.6035792 Z" id="Stroke-25"></path>
                    <polygon id="Fill-27" points="38.5521236 19 38.5521236 1.77805946 35 1.77805946 35 0 45 0 45 1.77805946 41.4489671 1.77805946 41.4489671 19"></polygon>
                    <polygon id="Stroke-29" points="38.5521236 19 38.5521236 1.77805946 35 1.77805946 35 0 45 0 45 1.77805946 41.4489671 1.77805946 41.4489671 19"></polygon>
                    <path d="M54.065317,3.32958738 C54.065317,2.33111403 53.3702605,1.83113524 51.9801475,1.83113524 C50.6159955,1.83113524 49.9340285,2.33111403 49.9340285,3.32958738 L49.9340285,16.6704126 C49.9340285,17.7019634 50.6159955,18.2159366 51.9801475,18.2159366 C53.3702605,18.2159366 54.065317,17.7019634 54.065317,16.6704126 L54.065317,3.32958738 Z M47,3.32958738 C47,1.11042789 48.6591038,0 51.9801475,0 C55.3262795,0 57,1.11042789 57,3.32958738 L57,16.6704126 C57,18.8906323 55.3262795,20 51.9801475,20 C48.6591038,20 47,18.8906323 47,16.6704126 L47,3.32958738 Z" id="Fill-31"></path>
                    <path d="M54.065317,3.32958738 C54.065317,2.33111403 53.3702605,1.83113524 51.9801475,1.83113524 C50.6159955,1.83113524 49.9340285,2.33111403 49.9340285,3.32958738 L49.9340285,16.6704126 C49.9340285,17.7019634 50.6159955,18.2159366 51.9801475,18.2159366 C53.3702605,18.2159366 54.065317,17.7019634 54.065317,16.6704126 L54.065317,3.32958738 L54.065317,3.32958738 Z M47,3.32958738 C47,1.11042789 48.6591038,0 51.9801475,0 C55.3262795,0 57,1.11042789 57,3.32958738 L57,16.6704126 C57,18.8906323 55.3262795,20 51.9801475,20 C48.6591038,20 47,18.8906323 47,16.6704126 L47,3.32958738 L47,3.32958738 Z" id="Stroke-33"></path>
                    <path d="M66.919833,3.64874762 C66.919833,2.95526738 66.7626105,2.47112801 66.449394,2.19365358 C66.1347445,1.91659083 65.4954143,1.77805946 64.5297658,1.77805946 L62.7532345,1.77805946 L62.7532345,8.795816 L64.5649771,8.795816 C65.4098428,8.795816 66.0145758,8.66963512 66.3769243,8.41542078 C66.7386587,8.16161813 66.919833,7.7657848 66.919833,7.22668573 L66.919833,3.64874762 Z M66.9929168,19 C66.6788814,17.5086778 66.3531772,16.057289 66.0145758,14.6495385 C65.6757697,13.2409646 65.3021618,11.8132475 64.8910907,10.3657696 C64.7703079,10.3820311 64.6620128,10.3898531 64.5649771,10.3898531 L64.238454,10.3898531 L62.7532345,10.3898531 L62.7532345,19 L60,19 L60,0 L64.5297658,0 C66.2684245,0 67.5655093,0.258537008 68.4240911,0.77375845 C69.2812398,1.28959742 69.7101212,2.17101101 69.7101212,3.41799922 L69.7101212,7.20363148 C69.7101212,8.58915107 68.9729365,9.51976079 67.5,9.99710738 C67.9831313,11.5363906 68.4285948,13.0489145 68.8402801,14.5334438 C69.2503275,16.0190024 69.6370373,17.5086778 70,19 L66.9929168,19 Z" id="Fill-35"></path>
                    <path d="M66.919833,3.64874762 C66.919833,2.95526738 66.7626105,2.47112801 66.449394,2.19365358 C66.1347445,1.91659083 65.4954143,1.77805946 64.5297658,1.77805946 L62.7532345,1.77805946 L62.7532345,8.795816 L64.5649771,8.795816 C65.4098428,8.795816 66.0145758,8.66963512 66.3769243,8.41542078 C66.7386587,8.16161813 66.919833,7.7657848 66.919833,7.22668573 L66.919833,3.64874762 L66.919833,3.64874762 Z M66.9929168,19 C66.6788814,17.5086778 66.3531772,16.057289 66.0145758,14.6495385 C65.6757697,13.2409646 65.3021618,11.8132475 64.8910907,10.3657696 C64.7703079,10.3820311 64.6620128,10.3898531 64.5649771,10.3898531 L64.238454,10.3898531 L62.7532345,10.3898531 L62.7532345,19 L60,19 L60,0 L64.5297658,0 C66.2684245,0 67.5655093,0.258537008 68.4240911,0.77375845 C69.2812398,1.28959742 69.7101212,2.17101101 69.7101212,3.41799922 L69.7101212,7.20363148 C69.7101212,8.58915107 68.9729365,9.51976079 67.5,9.99710738 C67.9831313,11.5363906 68.4285948,13.0489145 68.8402801,14.5334438 C69.2503275,16.0190024 69.6370373,17.5086778 70,19 L66.9929168,19 L66.9929168,19 Z" id="Stroke-37"></path>
                    <path d="M74.0762954,19 L74.0762954,10.4814526 L70,0 L72.8112656,0 C73.0458025,0.631727769 73.2964253,1.32767811 73.5665102,2.08929191 C73.8356021,2.85172907 74.1052898,3.6016099 74.3747788,4.34078696 C74.6448637,5.07893482 74.8843654,5.76027041 75.0952699,6.38397036 C75.3057772,7.00705278 75.4592887,7.48831037 75.5528254,7.82691974 C75.6457664,7.48831037 75.7988807,7.00705278 76.009388,6.38397036 C76.2200939,5.76027041 76.4605886,5.07893482 76.7288861,4.34078696 C76.9999639,3.6016099 77.2801769,2.85172907 77.5730998,2.08929191 C77.8664199,1.32767811 78.1418668,0.631727769 78.3998375,0 L81,0 L76.7827045,10.4814526 L76.7827045,19 L74.0762954,19 Z" id="Fill-39"></path>
                    <path d="M74.0762954,19 L74.0762954,10.4814526 L70,0 L72.8112656,0 C73.0458025,0.631727769 73.2964253,1.32767811 73.5665102,2.08929191 C73.8356021,2.85172907 74.1052898,3.6016099 74.3747788,4.34078696 C74.6448637,5.07893482 74.8843654,5.76027041 75.0952699,6.38397036 C75.3057772,7.00705278 75.4592887,7.48831037 75.5528254,7.82691974 C75.6457664,7.48831037 75.7988807,7.00705278 76.009388,6.38397036 C76.2200939,5.76027041 76.4605886,5.07893482 76.7288861,4.34078696 C76.9999639,3.6016099 77.2801769,2.85172907 77.5730998,2.08929191 C77.8664199,1.32767811 78.1418668,0.631727769 78.3998375,0 L81,0 L76.7827045,10.4814526 L76.7827045,19 L74.0762954,19 L74.0762954,19 Z" id="Stroke-41"></path>
                    <polygon id="Fill-43" points="0 19 3 19 3 0 0 0"></polygon>
                    <polygon id="Fill-45" points="0 3 11 3 11 0 0 0"></polygon>
                    <path d="M9,9.99988665 C9,11.1043355 8.10443701,12 7.00034,12 C5.89601632,12 5,11.1043355 5,9.99988665 C5,8.89475772 5.89601632,8 7.00034,8 C8.10443701,8 9,8.89475772 9,9.99988665" id="Fill-46"></path>
                </g>
                <g fill="#000000" id="icon" transform="translate(17.000000, 0.000000)">
                    <path d="M23.4848907,42.0083594 C13.2691517,42.0083594 4.98862965,33.7225099 4.98862965,23.5005956 C4.98862965,13.2780857 13.2691517,4.99223621 23.4848907,4.99223621 C29.6135405,4.99223621 35.0430203,7.97693672 38.4089168,12.5703261 C39.6044896,11.4410873 40.7278439,10.1464729 42,9.05277097 C37.7014139,3.54534933 31.0089045,-3.55271368e-15 23.4848907,-3.55271368e-15 C10.5147314,-3.55271368e-15 7.10542736e-15,10.5212976 7.10542736e-15,23.4998015 C7.10542736e-15,36.4787024 10.5147314,47 23.4848907,47 C30.0819685,47 36.038405,44.2747782 40.3052468,39.8920292 C39.1007459,38.6406944 37.9914781,37.3429036 37.2484612,35.8614725 C33.861534,39.6335431 28.9512733,42.0083594 23.4848907,42.0083594" id="Fill-13"></path>
                    <polygon id="Fill-15" points="31 10 15.1214802 10 15.1214802 10.0023458 15 10.0023458 15 37 20.6510031 37 20.6510031 15.3384231 31 15.3384231"></polygon>
                    <path d="M29,24.4996994 C29,25.880606 27.8802501,27 26.5,27 C25.1197499,27 24,25.880606 24,24.4996994 C24,23.1185924 25.1197499,22 26.5,22 C27.8802501,22 29,23.1185924 29,24.4996994" id="Fill-17"></path>
                </g>
            </g>
        </g>
    </g>
</svg>
