<?xml version="1.0" encoding="UTF-8"?>
<svg width="20px" height="16px" viewBox="0 0 20 16" version="1.1" xmlns="http://www.w3.org/2000/svg" xmlns:xlink="http://www.w3.org/1999/xlink">
    <!-- Generator: Sketch 41 (35326) - http://www.bohemiancoding.com/sketch -->
    <title>logo-medium</title>
    <desc>Created with Sketch.</desc>
    <defs></defs>
    <g id="Page-1" stroke="none" stroke-width="1" fill="none" fill-rule="evenodd">
        <g id="SSP-Copy-2" transform="translate(-943.000000, -809.000000)">
            <g id="Stories" transform="translate(0.000000, 430.000000)">
                <g id="Read-More" transform="translate(943.000000, 374.000000)">
                    <g id="logo-medium" transform="translate(0.000000, 5.000000)">
                        <path d="M13.8855658,0.128938637 C13.5810832,-0.0139736454 13.3320784,0.130208968 13.3320784,0.450332482 L13.3320784,13.1815938 L18.8901753,15.7940303 C19.5017208,16.0862065 19.9977951,15.8829535 19.9977951,15.3494143 L19.9977951,3.0907163 C19.9977951,3.03990305 19.9655406,2.99544145 19.9178039,2.97003482 L13.8862109,0.137195792 L13.8862109,0.130844135 L13.8855658,0.128938637 L13.8855658,0.128938637 L13.8855658,0.128938637 Z" id="Shape" fill="#32FC8D"></path>
                        <path d="M6.66571667,10.0489565 L13.006953,0.364585112 C13.186288,0.0914638608 13.5810832,-0.0165143082 13.8842756,0.123222146 L19.9248999,2.96241283 C19.9636053,2.9814678 19.9777973,3.0259294 19.9552191,3.05768768 L13.3314334,13.1828641 L6.66571667,10.0502268 L6.66571667,10.0489565 L6.66571667,10.0489565 L6.66571667,10.0489565 Z" id="Shape" fill="#0BE370"></path>
                        <path d="M0.922478937,0.301703708 C0.415438066,0.0635165701 0.243198992,0.240727801 0.540585558,0.695506442 L6.66571667,10.0489565 L13.3314334,13.1815938 L6.68055374,3.02338873 C6.67087739,3.00877992 6.6573305,2.99671178 6.64184834,2.98908978 L0.922478937,0.302338873 L0.922478937,0.301703708 L0.922478937,0.301703708 L0.922478937,0.301703708 Z" id="Shape" fill="#14C767"></path>
                        <path d="M6.66571667,15.344333 C6.66571667,15.8778722 6.2509237,16.1192352 5.74323773,15.8804128 L0.553487361,13.4413765 C0.249004804,13.2990995 0,12.9205407 0,12.599782 L0,0.644693186 C0,0.217861835 0.332221434,0.0247714623 0.738628238,0.215956338 L6.63023671,2.98527879 C6.65216977,2.99480628 6.66571667,3.01576675 6.66571667,3.03863271 L6.66571667,15.3417923 L6.66571667,15.344333 L6.66571667,15.344333 L6.66571667,15.344333 Z" id="Shape" fill="#00AB6C"></path>
                    </g>
                </g>
            </g>
        </g>
    </g>
</svg>